<svg width="24" height="26" viewBox="0 0 24 26" fill="none" xmlns="http://www.w3.org/2000/svg">
<g filter="url(#filter0_d_642_965)">
<path d="M18.25 2.83459H16.375V2.20959C16.375 2.04383 16.3092 1.88486 16.1919 1.76765C16.0747 1.65044 15.9158 1.58459 15.75 1.58459C15.5842 1.58459 15.4253 1.65044 15.3081 1.76765C15.1908 1.88486 15.125 2.04383 15.125 2.20959V2.83459H8.875V2.20959C8.875 2.04383 8.80915 1.88486 8.69194 1.76765C8.57473 1.65044 8.41576 1.58459 8.25 1.58459C8.08424 1.58459 7.92527 1.65044 7.80806 1.76765C7.69085 1.88486 7.625 2.04383 7.625 2.20959V2.83459H5.75C5.41848 2.83459 5.10054 2.96629 4.86612 3.20071C4.6317 3.43513 4.5 3.75307 4.5 4.08459V16.5846C4.5 16.9161 4.6317 17.2341 4.86612 17.4685C5.10054 17.7029 5.41848 17.8346 5.75 17.8346H18.25C18.5815 17.8346 18.8995 17.7029 19.1339 17.4685C19.3683 17.2341 19.5 16.9161 19.5 16.5846V4.08459C19.5 3.75307 19.3683 3.43513 19.1339 3.20071C18.8995 2.96629 18.5815 2.83459 18.25 2.83459ZM7.625 4.08459V4.70959C7.625 4.87536 7.69085 5.03433 7.80806 5.15154C7.92527 5.26875 8.08424 5.33459 8.25 5.33459C8.41576 5.33459 8.57473 5.26875 8.69194 5.15154C8.80915 5.03433 8.875 4.87536 8.875 4.70959V4.08459H15.125V4.70959C15.125 4.87536 15.1908 5.03433 15.3081 5.15154C15.4253 5.26875 15.5842 5.33459 15.75 5.33459C15.9158 5.33459 16.0747 5.26875 16.1919 5.15154C16.3092 5.03433 16.375 4.87536 16.375 4.70959V4.08459H18.25V6.58459H5.75V4.08459H7.625ZM18.25 16.5846H5.75V7.83459H18.25V16.5846Z" fill="#8B8D9B"/>
</g>
<defs>
<filter id="filter0_d_642_965" x="-2" y="0" width="28" height="28" filterUnits="userSpaceOnUse" color-interpolation-filters="sRGB">
<feFlood flood-opacity="0" result="BackgroundImageFix"/>
<feColorMatrix in="SourceAlpha" type="matrix" values="0 0 0 0 0 0 0 0 0 0 0 0 0 0 0 0 0 0 127 0" result="hardAlpha"/>
<feOffset dy="4"/>
<feGaussianBlur stdDeviation="2"/>
<feComposite in2="hardAlpha" operator="out"/>
<feColorMatrix type="matrix" values="0 0 0 0 0 0 0 0 0 0 0 0 0 0 0 0 0 0 0.25 0"/>
<feBlend mode="normal" in2="BackgroundImageFix" result="effect1_dropShadow_642_965"/>
<feBlend mode="normal" in="SourceGraphic" in2="effect1_dropShadow_642_965" result="shape"/>
</filter>
</defs>
</svg>
